# xmcd CD database file
#
# Track frame offsets:
#	151
#	13350
#	26057
#	35372
#	47799
#	60771
#	72130
#	82162
#	92355
#	106371
#	118701
#	129497
#	142423
#	155655
#	168167
#	186890
#	198178
#	211629
#	222692
#	234739
#	252219
#	266847
#	280437
#	290632
#	301472
#	312333
#
# Disc length: 4295 seconds
#
# Revision: 0
# Processed by: cddbd v1.5.2PL0 Copyright (c) Steve Scherf et al.
# Submitted via: CDex 1.82
#
DISCID=8c10c51a
DTITLE=Tammy Wynette - Tears of Fire Vol.1
DYEAR=1900
DGENRE=Country
TTITLE0=You Can Steel Me
TTITLE1=She Didn't Color Daddy
TTITLE2=Your Good Girls Gonna Be Bad
TTITLE3=Walk Through This World With Me
TTITLE4=My Elusive Dreams
TTITLE5=Sweet Dreams
TTITLE6=Lonely Street
TTITLE7=I Believe
TTITLE8=He
TTITLE9=You'll Never Walk Alone
TTITLE10=Singing My Song
TTITLE11=Too Far Gone
TTITLE12=I'll See Him Through
TTITLE13=We Sure Can Love Each Other
TTITLE14=The Deeping Snow
TTITLE15=Good Lovin' (Makes It Right)
TTITLE16=We're Gonna Hold On
TTITLE17=(We're Not) The Jet Set
TTITLE18=Another Lonely Song
TTITLE19=I Don't Think About Him No More
TTITLE20=No Charge
TTITLE21=Woman To Woman
TTITLE22=This Time I Almost Made It
TTITLE23=Near You
TTITLE24=I Still Believe In Fairy Tales
TTITLE25=Did You Ever
EXTD=
EXTT0=
EXTT1=
EXTT2=
EXTT3=
EXTT4=
EXTT5=
EXTT6=
EXTT7=
EXTT8=
EXTT9=
EXTT10=
EXTT11=
EXTT12=
EXTT13=
EXTT14=
EXTT15=
EXTT16=
EXTT17=
EXTT18=
EXTT19=
EXTT20=
EXTT21=
EXTT22=
EXTT23=
EXTT24=
EXTT25=
PLAYORDER=
